<svg xmlns="http://www.w3.org/2000/svg" viewBox="0 0 320 445" width="320" height="445" role="img" aria-label="AGRIVISION AI leaf mark">
  <title>AGRIVISION AI leaf mark</title>
  <defs>
    <linearGradient id="leafGrad" x1="0.72" y1="0" x2="0.18" y2="1">
      <stop offset="0" stop-color="#5ab709"/>
      <stop offset="1" stop-color="#0c4223"/>
    </linearGradient>
  </defs>
  <g fill="url(#leafGrad)" fill-rule="evenodd">
    <path d="M303.41 0.00 C303.86 0.00 305.31 -0.24 306.13 0.00 C306.95 0.24 307.55 0.77 308.33 1.44 C309.12 2.10 310.27 3.18 310.83 4.00 C311.40 4.82 310.42 -5.44 311.74 6.33 C313.06 18.11 317.43 60.33 318.76 74.67 C320.08 89.00 319.52 82.61 319.68 92.33 C319.84 102.06 319.99 121.17 319.70 133.00 C319.40 144.83 318.53 155.22 317.90 163.33 C317.26 171.44 316.73 175.50 315.90 181.67 C315.06 187.83 314.23 193.61 312.90 200.33 C311.57 207.06 310.56 212.61 307.89 222.00 C305.22 231.39 301.22 245.39 296.89 256.67 C292.57 267.94 287.10 279.83 281.94 289.67 C276.78 299.50 271.26 308.00 265.92 315.67 C260.57 323.33 255.92 328.98 249.88 335.67 C243.84 342.36 237.04 349.46 229.67 355.81 C222.30 362.16 212.83 368.93 205.67 373.78 C198.50 378.63 191.56 382.22 186.67 384.90 C181.78 387.57 183.00 387.19 176.33 389.85 C169.67 392.51 156.22 398.02 146.67 400.86 C137.11 403.70 128.56 405.54 119.00 406.89 C109.44 408.24 97.61 408.77 89.33 408.95 C81.06 409.13 73.85 408.34 69.33 407.96 C64.82 407.58 63.42 407.09 62.25 406.67 C61.08 406.24 59.65 409.32 62.33 405.39 C65.01 401.46 71.61 386.67 78.33 383.06 C85.06 379.46 96.72 383.79 102.67 383.76 C108.61 383.73 109.17 383.52 114.00 382.88 C118.83 382.25 126.28 381.09 131.67 379.93 C137.06 378.76 141.50 377.40 146.33 375.88 C151.17 374.37 153.94 373.81 160.67 370.82 C167.39 367.82 179.50 361.92 186.67 357.91 C193.83 353.91 198.18 350.84 203.67 346.80 C209.16 342.76 215.60 337.19 219.61 333.67 C223.62 330.14 223.72 330.17 227.73 325.67 C231.74 321.17 238.99 312.83 243.67 306.66 C248.35 300.49 251.62 295.72 255.81 288.67 C260.00 281.61 264.95 272.50 268.79 264.33 C272.63 256.17 275.86 248.39 278.86 239.67 C281.87 230.94 284.33 222.89 286.82 212.00 C289.32 201.11 292.12 186.56 293.81 174.33 C295.50 162.11 296.43 152.50 296.95 138.67 C297.48 124.83 297.49 106.44 296.98 91.33 C296.47 76.22 294.74 58.33 293.88 48.00 C293.01 37.67 292.39 33.03 291.80 29.33 C291.21 25.64 295.52 25.53 290.33 25.85 C285.14 26.16 271.17 28.86 260.67 31.24 C250.17 33.63 238.06 36.69 227.33 40.17 C216.61 43.66 206.33 47.67 196.33 52.18 C186.33 56.69 176.67 61.72 167.33 67.23 C158.00 72.74 148.06 79.61 140.33 85.26 C132.61 90.92 127.67 95.04 121.00 101.17 C114.33 107.29 107.41 113.92 100.29 122.00 C93.18 130.08 84.64 140.67 78.29 149.67 C71.94 158.67 66.71 167.72 62.19 176.00 C57.68 184.28 54.02 192.78 51.19 199.33 C48.36 205.89 46.88 210.39 45.22 215.33 C43.56 220.28 42.56 223.94 41.24 229.00 C39.91 234.06 38.24 240.83 37.25 245.67 C36.26 250.50 35.93 251.22 35.30 258.00 C34.67 264.78 33.47 277.00 33.45 286.33 C33.44 295.67 34.25 305.56 35.21 314.00 C36.18 322.44 37.94 330.61 39.26 337.00 C40.59 343.39 41.82 347.81 43.16 352.33 C44.50 356.86 45.22 363.94 47.33 364.16 C49.45 364.39 46.45 366.75 55.84 353.67 C65.23 340.58 97.79 306.72 103.69 285.67 C109.59 264.61 93.30 237.78 91.22 227.33 C89.13 216.89 90.99 224.16 91.17 223.00 C91.36 221.84 91.53 221.35 92.33 220.40 C93.14 219.45 94.72 217.92 96.00 217.29 C97.28 216.66 98.56 216.49 100.00 216.62 C101.44 216.74 103.38 217.20 104.67 218.04 C105.95 218.88 105.61 213.78 107.69 221.67 C109.78 229.55 115.44 257.93 117.16 265.33 C118.88 272.74 111.94 274.42 118.00 266.09 C124.06 257.75 149.04 232.07 153.53 215.33 C158.03 198.60 146.32 174.72 144.95 165.67 C143.58 156.61 144.61 162.56 145.29 161.00 C145.96 159.44 147.94 157.31 149.00 156.33 C150.06 155.35 150.56 155.31 151.67 155.11 C152.78 154.91 154.56 154.91 155.67 155.11 C156.77 155.32 157.45 155.69 158.31 156.33 C159.17 156.98 159.11 152.47 160.84 159.00 C162.56 165.53 162.64 195.97 168.67 195.52 C174.69 195.07 191.89 163.17 197.00 156.29 C202.11 149.41 198.44 154.73 199.33 154.23 C200.22 153.72 200.94 153.25 202.33 153.24 C203.72 153.23 206.07 153.24 207.67 154.15 C209.26 155.05 211.19 156.91 211.89 158.67 C212.59 160.42 216.38 157.00 211.89 164.67 C207.41 172.33 183.24 198.39 184.99 204.67 C186.74 210.94 215.42 202.44 222.37 202.33 C229.32 202.23 225.58 203.37 226.67 204.04 C227.75 204.70 228.35 205.56 228.90 206.33 C229.44 207.10 229.79 207.56 229.96 208.67 C230.12 209.78 230.25 211.67 229.89 213.00 C229.53 214.33 228.74 215.67 227.82 216.67 C226.89 217.66 233.77 217.73 224.33 218.95 C214.90 220.18 183.90 217.77 171.21 224.00 C158.51 230.23 154.24 247.56 148.16 256.33 C142.08 265.11 128.00 274.03 134.75 276.67 C141.50 279.31 179.01 272.59 188.67 272.17 C198.32 271.74 191.63 273.37 192.67 274.12 C193.70 274.87 194.32 275.52 194.88 276.67 C195.43 277.81 196.01 279.50 196.01 281.00 C196.00 282.50 195.57 284.37 194.85 285.67 C194.13 286.97 192.75 288.10 191.67 288.80 C190.58 289.50 200.22 288.65 188.33 289.89 C176.44 291.13 148.76 270.96 120.33 296.26 C91.91 321.56 35.43 417.06 17.77 441.67 C0.10 466.28 15.52 443.50 14.33 443.93 C13.15 444.35 11.89 444.22 10.67 444.22 C9.44 444.21 8.22 444.30 7.00 443.90 C5.78 443.49 4.32 442.65 3.33 441.78 C2.35 440.91 1.63 439.78 1.07 438.67 C0.52 437.56 -0.17 436.67 0.00 435.11 C0.17 433.56 -3.09 437.13 2.08 429.33 C7.25 421.54 27.34 398.11 31.02 388.33 C34.69 378.56 26.12 376.28 24.13 370.67 C22.13 365.06 20.74 360.72 19.07 354.67 C17.40 348.61 15.42 340.89 14.09 334.33 C12.75 327.78 11.88 324.11 11.08 315.33 C10.27 306.56 9.41 290.17 9.25 281.67 C9.09 273.17 9.47 270.78 10.11 264.33 C10.76 257.89 11.46 251.33 13.13 243.00 C14.79 234.67 17.41 223.33 20.08 214.33 C22.75 205.33 25.47 197.72 29.16 189.00 C32.85 180.28 37.69 170.28 42.21 162.00 C46.72 153.72 50.74 147.27 56.26 139.33 C61.78 131.40 70.00 120.95 75.33 114.40 C80.67 107.84 83.92 104.52 88.25 100.00 C92.59 95.48 94.49 93.26 101.33 87.30 C108.18 81.35 120.00 71.12 129.33 64.27 C138.67 57.41 147.72 51.71 157.33 46.18 C166.94 40.66 176.39 35.78 187.00 31.12 C197.61 26.46 209.06 22.02 221.00 18.21 C232.94 14.41 244.93 11.31 258.67 8.28 C272.40 5.24 295.95 1.38 303.41 0.00 C310.86 -1.38 302.95 0.00 303.41 0.00 Z"/>
  </g>
</svg>
